<svg aria-hidden="true" style="width:0;height:0;position:absolute;overflow:hidden" xmlns="http://www.w3.org/2000/svg"><defs><symbol id="backward" viewBox="0 0 16 32"><path d="M0 16c0 .596.204 1.107.642 1.55l12.192 12.982c.345.375.784.579 1.301.579 1.034 0 1.865-.886 1.865-2.027 0-.562-.219-1.056-.564-1.448L4.451 16 15.436 4.364c.345-.392.564-.903.564-1.448 0-1.141-.831-2.027-1.865-2.027-.517 0-.956.204-1.301.579L.642 14.433C.203 14.893 0 15.404 0 16z"/></symbol><symbol id="forward" viewBox="0 0 16 32"><path d="M16 16a2.309 2.309 0 0 0-.643-1.567L3.165 1.468c-.36-.375-.784-.579-1.301-.579-1.05 0-1.865.886-1.865 2.027 0 .545.204 1.056.564 1.448L11.533 16 .563 27.636a2.1 2.1 0 0 0-.564 1.448c0 1.142.815 2.027 1.865 2.027.501 0 .94-.204 1.301-.579L15.357 17.55c.439-.443.642-.954.642-1.55z"/></symbol><symbol id="down" viewBox="0 0 56 32"><path d="M6.58 0 0 6.089 28 32 56 6.089 49.42 0 28 19.779 6.58 0z"/></symbol><symbol id="up" viewBox="0 0 56 32"><path d="M6.58 32 0 25.911 28 0l28 25.911L49.42 32 28 12.221 6.58 32z"/></symbol><symbol id="calendar" viewBox="0 0 32 32"><path d="M23.407 4.444h5.926a1.482 1.482 0 0 1 1.482 1.482V29.63a1.482 1.482 0 0 1-1.482 1.482H2.666a1.482 1.482 0 0 1-1.482-1.482V5.926a1.482 1.482 0 0 1 1.482-1.482h5.926V1.481h2.963v2.963h8.889V1.481h2.963v2.963zm4.445 11.852H4.148v11.852h23.704V16.296zm-7.408-8.889h-8.889v2.963H8.592V7.407H4.148v5.926h23.704V7.407h-4.444v2.963h-2.963V7.407zM7.111 19.259h2.963v2.963H7.111v-2.963zm7.407 0h2.963v2.963h-2.963v-2.963zm7.408 0h2.963v2.963h-2.963v-2.963z"/></symbol></defs></svg>