<svg aria-hidden="true" style="width:0;height:0;position:absolute;overflow:hidden" xmlns="http://www.w3.org/2000/svg"><defs><symbol id="icon-search" viewBox="0 0 34 32"><path d="M14.035 24c2.491 0 4.911-.793 6.873-2.251l6.17 5.861 1.985-1.885-6.17-5.861c1.535-1.864 2.37-4.163 2.371-6.531 0-5.881-5.037-10.667-11.228-10.667S2.808 7.451 2.808 13.333C2.808 19.214 7.845 24 14.036 24zm0-18.667c4.644 0 8.421 3.588 8.421 8s-3.777 8-8.421 8c-4.644 0-8.421-3.588-8.421-8s3.777-8 8.421-8z"/></symbol><symbol id="icon-Frame" viewBox="0 0 32 32"><path d="M22.667 4H28a1.335 1.335 0 0 1 1.334 1.334v21.333A1.335 1.335 0 0 1 28 28.001H4a1.33 1.33 0 0 1-1.333-1.334V5.334A1.333 1.333 0 0 1 4 4h5.333V1.333H12V4h8V1.333h2.667V4zm4 10.667H5.334v10.667h21.333V14.667zm-6.667-8h-8v2.667H9.333V6.667h-4V12h21.333V6.667h-4v2.667h-2.667V6.667zM8 17.333h2.667V20H8v-2.667zm6.667 0h2.667V20h-2.667v-2.667zm6.666 0H24V20h-2.667v-2.667z"/></symbol><symbol id="icon-menu" viewBox="0 0 32 32"><path stroke-linejoin="round" stroke-linecap="round" stroke-width="2.667" d="M4 16h24M4 8h24M4 24h24"/></symbol><symbol id="icon-moon" viewBox="0 0 32 32"><path stroke-linejoin="round" stroke-linecap="round" stroke-width="2.286" d="M28 17.053a11.994 11.994 0 0 1-7.873 10.182A12.003 12.003 0 0 1 4.338 18.56 12.002 12.002 0 0 1 14.946 3.999 9.335 9.335 0 0 0 28 17.053z"/></symbol><symbol id="icon-sun" viewBox="0 0 32 32"><path d="M16 26a2 2 0 0 1 2 2v2a2 2 0 1 1-4 0v-2a2 2 0 0 1 2-2zm0-20a2 2 0 0 1-2-2V2a2 2 0 1 1 4 0v2a2 2 0 0 1-2 2zm14 8a2 2 0 1 1 0 4h-2a2 2 0 1 1 0-4h2zM6 16a2 2 0 0 1-2 2H2a2 2 0 1 1 0-4h2a2 2 0 0 1 2 2zm19.899 7.071 1.414 1.414a2 2 0 1 1-2.828 2.828l-1.414-1.414a2 2 0 1 1 2.828-2.828zM6.101 8.929 4.687 7.515a2 2 0 1 1 2.828-2.828l1.414 1.414a2 2 0 1 1-2.828 2.828zm19.798 0a2 2 0 1 1-2.828-2.828l1.414-1.414a2 2 0 1 1 2.828 2.828l-1.414 1.414zM6.101 23.071a2 2 0 1 1 2.828 2.828l-1.414 1.414a2 2 0 1 1-2.828-2.828l1.414-1.414zM16 8a8 8 0 1 0 0 16 8 8 0 0 0 0-16zm0 13a5 5 0 1 1 .001-10.001A5 5 0 0 1 16 21z"/></symbol><symbol id="icon-Vojtisvg" viewBox="0 0 32 32"><path d="M8.711 17.829a5.18 5.18 0 0 0-5.177 5.185.36.36 0 1 1-.722 0 5.902 5.902 0 0 1 5.898-5.907h2.038a5.903 5.903 0 0 1 5.898 5.907.36.36 0 1 1-.722 0 5.18 5.18 0 0 0-5.177-5.185H8.709zM9.739 15.842c-1.773 0-3.211-1.44-3.211-3.216S7.965 9.41 9.739 9.41c1.773 0 3.211 1.44 3.211 3.216s-1.437 3.216-3.211 3.216zm0 .722c2.172 0 3.932-1.763 3.932-3.938s-1.76-3.938-3.932-3.938c-2.172 0-3.932 1.763-3.932 3.938s1.76 3.938 3.932 3.938zM19.5 8.375h6.291l3.334 4.936v11.054l-3.666-5.427H19.5V8.375zm6.438 10.154 2.563 3.794v-8.821l-2.563-3.794v8.821zM25.313 9h-5.188v9.313h5.188V9z"/><path d="M20.919 11.95a.469.469 0 0 1 .663 0l1.613 1.613-1.613 1.613a.469.469 0 0 1-.663-.663l.481-.481h-5.462a.469.469 0 0 1 0-.938H21.4l-.481-.481a.469.469 0 0 1 0-.663z"/></symbol><symbol id="icon-enter" viewBox="0 0 24 24"><path d="M12.199 11.566 8 7.367V10H1v3h7v2.766l4.199-4.2zM9 1v3.367l2 2V3h8.089L13 5v12h-2v-.234l-2 2V19h4v4l9-3V1z"/></symbol><symbol id="icon-user" viewBox="0 0 24 24"><path d="M23.676 19.99c-1.677-4.008-4.914-5.873-7.423-6.739 1.12-1.537 1.733-3.792 1.757-6.55.041-4.656-3.798-5.921-5.833-5.938s-5.896 1.18-5.938 5.836c-.024 2.757.55 5.021 1.642 6.579-2.523.82-5.795 2.632-7.54 6.608l-.413.938.949.39c.207.083 5.126 2.07 11.102 2.122 5.977.053 10.93-1.847 11.139-1.927l.955-.372-.397-.947zM12.153 2.763c.399.008 3.89.178 3.857 3.921-.026 2.996-.841 5.274-2.232 6.251l-1.721 1.208-1.696-1.237c-1.375-1.002-2.149-3.294-2.122-6.29.033-3.744 3.527-3.852 3.914-3.853zm-.156 18.474c-4.046-.035-7.648-1.047-9.341-1.607 1.83-3.205 4.931-4.457 7.312-4.937l2.089-.421 2.081.456c2.373.523 5.452 1.829 7.227 5.064-1.699.532-5.31 1.481-9.368 1.445z"/></symbol></defs></svg>