<svg aria-hidden="true" style="width:0;height:0;position:absolute;overflow:hidden" xmlns="http://www.w3.org/2000/svg"><defs><symbol id="icon-book-open" viewBox="0 0 32 32"><path fill="none" stroke="#f4f4f4" style="stroke:var(--color1,#f4f4f4)" stroke-linejoin="round" stroke-linecap="round" stroke-width="1.778" d="M2.667 4h8A5.333 5.333 0 0 1 16 9.333V28a4 4 0 0 0-4-4v0H2.667V4zm26.666 0h-8A5.333 5.333 0 0 0 16 9.333V28a4 4 0 0 1 4-4v0h9.333V4z"/></symbol><symbol id="icon-home" viewBox="0 0 32 32"><path fill="none" stroke="#f4f4f4" style="stroke:var(--color1,#f4f4f4)" stroke-linejoin="round" stroke-linecap="round" stroke-width="1.778" d="m4 12 12-9.333L28 12v14.667a2.667 2.667 0 0 1-2.667 2.667v0H6.666a2.667 2.667 0 0 1-2.667-2.667v0V12z"/><path fill="none" stroke="#f4f4f4" style="stroke:var(--color1,#f4f4f4)" stroke-linejoin="round" stroke-linecap="round" stroke-width="1.778" d="M12 29.333V16h8v13.333"/></symbol><symbol id="icon-burger-menu" viewBox="0 0 32 32"><path stroke-linejoin="round" stroke-linecap="round" stroke-width="2.667" d="M4 16h24M4 8h24M4 24h24"/></symbol><symbol id="icon-chevron-right" viewBox="0 0 32 32"><path fill="none" stroke="#f4f4f4" style="stroke:var(--color1,#f4f4f4)" stroke-linejoin="round" stroke-linecap="round" stroke-width="2.667" d="m12 24 8-8-8-8"/></symbol><symbol id="icon-close-btn" viewBox="0 0 32 32"><path stroke-linejoin="round" stroke-linecap="round" stroke-width="2.667" d="M24 8 8 24M8 8l16 16"/></symbol><symbol id="icon-heart" viewBox="0 0 32 32"><path fill="none" stroke="#f4f4f4" style="stroke:var(--color1,#f4f4f4)" stroke-linejoin="round" stroke-linecap="round" stroke-width="1.778" d="M27.787 6.148C26.46 4.821 24.626 4 22.601 4s-3.859.821-5.186 2.148v0L16 7.561l-1.413-1.413A7.335 7.335 0 0 0 4.214 16.522L16 28.306l11.787-11.787c1.327-1.328 2.148-3.161 2.148-5.187s-.821-3.859-2.148-5.187h0z"/></symbol><symbol id="icon-enter" viewBox="0 0 24 24"><path d="M12.199 11.566 8 7.367V10H1v3h7v2.766l4.199-4.2zM9 1v3.367l2 2V3h8.089L13 5v12h-2v-.234l-2 2V19h4v4l9-3V1z"/></symbol><symbol id="icon-user" viewBox="0 0 24 24"><path d="M23.676 19.99c-1.677-4.008-4.914-5.873-7.423-6.739 1.12-1.537 1.733-3.792 1.757-6.55.041-4.656-3.798-5.921-5.833-5.938s-5.896 1.18-5.938 5.836c-.024 2.757.55 5.021 1.642 6.579-2.523.82-5.795 2.632-7.54 6.608l-.413.938.949.39c.207.083 5.126 2.07 11.102 2.122 5.977.053 10.93-1.847 11.139-1.927l.955-.372-.397-.947zM12.153 2.763c.399.008 3.89.178 3.857 3.921-.026 2.996-.841 5.274-2.232 6.251l-1.721 1.208-1.696-1.237c-1.375-1.002-2.149-3.294-2.122-6.29.033-3.744 3.527-3.852 3.914-3.853zm-.156 18.474c-4.046-.035-7.648-1.047-9.341-1.607 1.83-3.205 4.931-4.457 7.312-4.937l2.089-.421 2.081.456c2.373.523 5.452 1.829 7.227 5.064-1.699.532-5.31 1.481-9.368 1.445z"/></symbol></defs></svg>