<svg aria-hidden="true" style="width:0;height:0;position:absolute;overflow:hidden" xmlns="http://www.w3.org/2000/svg"><defs><symbol id="icon-toggle-dark" viewBox="0 0 61 32"><path fill="#4b48db" style="fill:var(--color1,#4b48db)" d="M15.238 1.524h30.476C53.709 1.524 60.19 8.005 60.19 16s-6.481 14.476-14.476 14.476H15.238C7.243 30.476.762 23.995.762 16S7.243 1.524 15.238 1.524z"/><path fill="#fff" style="fill:var(--color2,#fff)" d="M57.905 16c0 6.733-5.458 12.19-12.19 12.19S33.525 22.732 33.525 16c0-6.733 5.458-12.19 12.19-12.19S57.905 9.268 57.905 16z"/><path fill="none" stroke="#fff" style="stroke:var(--color2,#fff)" stroke-width="1.524" d="M15.238 1.524h30.476C53.709 1.524 60.19 8.005 60.19 16s-6.481 14.476-14.476 14.476H15.238C7.243 30.476.762 23.995.762 16S7.243 1.524 15.238 1.524z"/></symbol><symbol id="icon-toggle-light" viewBox="0 0 61 32"><path fill="#fff" style="fill:var(--color2,#fff)" d="M15.238 1.222h30.475c8.162 0 14.778 6.616 14.778 14.778v-.002c0 8.162-6.616 14.778-14.778 14.778H15.238C7.076 30.776.46 24.16.46 15.998V16c0-8.162 6.616-14.778 14.778-14.778z"/><path fill="#4b48db" style="fill:var(--color1,#4b48db)" d="M25.905 16c0 6.733-5.458 12.19-12.19 12.19S1.525 22.732 1.525 16c0-6.733 5.458-12.19 12.19-12.19S25.905 9.268 25.905 16z"/><path fill="none" stroke="#4b48db" style="stroke:var(--color1,#4b48db)" stroke-width=".922" d="M15.238 1.222h30.475c8.162 0 14.778 6.616 14.778 14.778v-.002c0 8.162-6.616 14.778-14.778 14.778H15.238C7.076 30.776.46 24.16.46 15.998V16c0-8.162 6.616-14.778 14.778-14.778z"/></symbol><symbol id="icon-book-open" viewBox="0 0 32 32"><path fill="none" stroke="#f4f4f4" style="stroke:var(--color1,#f4f4f4)" stroke-linejoin="round" stroke-linecap="round" stroke-width="1.778" d="M2.667 4h8A5.333 5.333 0 0 1 16 9.333V28a4 4 0 0 0-4-4v0H2.667V4zm26.666 0h-8A5.333 5.333 0 0 0 16 9.333V28a4 4 0 0 1 4-4v0h9.333V4z"/></symbol><symbol id="icon-home" viewBox="0 0 32 32"><path fill="none" stroke="#f4f4f4" style="stroke:var(--color1,#f4f4f4)" stroke-linejoin="round" stroke-linecap="round" stroke-width="1.778" d="m4 12 12-9.333L28 12v14.667a2.667 2.667 0 0 1-2.667 2.667v0H6.666a2.667 2.667 0 0 1-2.667-2.667v0V12z"/><path fill="none" stroke="#f4f4f4" style="stroke:var(--color1,#f4f4f4)" stroke-linejoin="round" stroke-linecap="round" stroke-width="1.778" d="M12 29.333V16h8v13.333"/></symbol><symbol id="icon-burger-menu" viewBox="0 0 32 32"><path stroke-linejoin="round" stroke-linecap="round" stroke-width="2.667" d="M4 16h24M4 8h24M4 24h24"/></symbol><symbol id="icon-chevron-right" viewBox="0 0 32 32"><path fill="none" stroke="#f4f4f4" style="stroke:var(--color1,#f4f4f4)" stroke-linejoin="round" stroke-linecap="round" stroke-width="2.667" d="m12 24 8-8-8-8"/></symbol><symbol id="icon-close-btn" viewBox="0 0 32 32"><path stroke-linejoin="round" stroke-linecap="round" stroke-width="2.667" d="M24 8 8 24M8 8l16 16"/></symbol><symbol id="icon-moon" viewBox="0 0 32 32"><path stroke-linejoin="round" stroke-linecap="round" stroke-width="2.286" d="M28.175 17.053c-.21 2.27-1.237 4.434-2.632 6.235-2.216 2.847-5.643 4.661-9.494 4.661-6.627 0-12-5.373-12-12 0-6.24 4.763-11.367 10.851-11.946l.048-.004a9.264 9.264 0 0 0-1.827 5.546 9.333 9.333 0 0 0 14.904 7.489l-.025.018h.174z"/></symbol><symbol id="icon-sun" viewBox="0 0 32 32"><path stroke-linejoin="round" stroke-linecap="round" stroke-width="2.286" d="M16 1.778v2.586m0 23.272v2.586M5.938 5.943l1.836 1.836m16.447 16.445 1.836 1.836M1.777 16h2.586m23.273 0h2.586M5.94 26.059l1.836-1.836M24.222 7.778l1.835-1.836M22.461 16a6.464 6.464 0 1 1-12.928 0 6.465 6.465 0 0 1 12.93 0z"/></symbol><symbol id="icon-heart" viewBox="0 0 32 32"><path fill="none" stroke="#f4f4f4" style="stroke:var(--color1,#f4f4f4)" stroke-linejoin="round" stroke-linecap="round" stroke-width="1.778" d="M27.787 6.148C26.46 4.821 24.626 4 22.601 4s-3.859.821-5.186 2.148v0L16 7.561l-1.413-1.413A7.335 7.335 0 0 0 4.214 16.522L16 28.306l11.787-11.787c1.327-1.328 2.148-3.161 2.148-5.187s-.821-3.859-2.148-5.187h0z"/></symbol></defs></svg>