<svg xmlns="http://www.w3.org/2000/svg" width="32" height="32" fill="none"><path fill="#000" d="M21.955 12.485a2.257 2.257 0 0 1 1.719.13 2.256 2.256 0 0 1 1.117 1.313l1.392 4.279a6.676 6.676 0 0 1-.407 5.148 6.95 6.95 0 0 1-1.593 2.035 6.68 6.68 0 0 1-2.33 1.325 7.657 7.657 0 0 1-3.185.359 8.847 8.847 0 0 1-3.084-.92l-6.972-3.547a2.35 2.35 0 0 1-1.158-1.36 2.225 2.225 0 0 1-.104-.928c.031-.306.114-.596.247-.87a2.04 2.04 0 0 1 .55-.696 2.86 2.86 0 0 1 .81-.46 2.255 2.255 0 0 1 1.786.145l1.577.793-1.219-3.744a5.191 5.191 0 0 1-1.435-.396 5.104 5.104 0 0 1-1.236-.768 5.751 5.751 0 0 1-.993-1.082 4.69 4.69 0 0 1-.658-1.338 5.085 5.085 0 0 1-.24-2.066 5.449 5.449 0 0 1 .55-1.942A5.055 5.055 0 0 1 8.325 6.31a5.395 5.395 0 0 1 1.823-1.025 5.085 5.085 0 0 1 2.066-.24 5.45 5.45 0 0 1 1.942.55A5.056 5.056 0 0 1 15.74 6.83c.449.52.79 1.127 1.025 1.823a5.252 5.252 0 0 1-.396 4.159 2.08 2.08 0 0 1 .81.106c.26.088.504.222.735.401a2.275 2.275 0 0 1 2.077-.7c.375.067.71.229 1.008.485.274-.294.593-.5.957-.62Zm-13.75-1.047a3.7 3.7 0 0 0 .898 1.47 3.7 3.7 0 0 0 1.458.919l-.929-2.853a2.257 2.257 0 0 1 .13-1.719 2.258 2.258 0 0 1 3.032-.986 2.258 2.258 0 0 1 1.117 1.312l.929 2.853c.337-.48.55-1.013.637-1.6a3.7 3.7 0 0 0-.14-1.717 3.666 3.666 0 0 0-1.864-2.166 4.084 4.084 0 0 0-1.386-.4 3.536 3.536 0 0 0-1.476.16c-.49.16-.92.403-1.291.73a3.803 3.803 0 0 0-1.285 2.525 3.63 3.63 0 0 0 .17 1.472Zm15.16 2.954a.72.72 0 0 0-.376-.432.72.72 0 0 0-.57-.049c-.253.082-.404.21-.455.382-.05.173-.053.367-.008.582.046.215.117.447.214.694.097.248.17.475.221.68.05.206.05.403-.004.593-.053.19-.209.319-.466.386-.275.09-.488.064-.64-.075-.153-.14-.285-.343-.396-.61a4.392 4.392 0 0 1-.258-.866 4.399 4.399 0 0 0-.256-.865c-.112-.268-.24-.469-.382-.603-.142-.135-.36-.162-.655-.083-.253.083-.404.21-.455.382-.05.173-.053.367-.008.582.046.216.117.447.214.695.097.247.17.474.221.68.05.205.05.402-.004.592-.053.19-.209.319-.466.386-.275.09-.488.065-.64-.075-.153-.14-.285-.343-.396-.61a4.4 4.4 0 0 1-.257-.866 4.403 4.403 0 0 0-.257-.865c-.112-.268-.24-.469-.381-.603-.143-.134-.361-.162-.656-.082-.252.082-.404.21-.455.382-.05.172-.053.366-.008.582.046.215.117.446.214.694.097.248.171.474.221.68.05.205.05.403-.004.593-.053.19-.208.318-.466.386a.72.72 0 0 1-.57-.05.72.72 0 0 1-.375-.432l-2.321-7.131a.721.721 0 0 0-.375-.433.72.72 0 0 0-.57-.048.721.721 0 0 0-.433.374.721.721 0 0 0-.048.57l2.854 8.77a1.256 1.256 0 0 1-.066.971 1.017 1.017 0 0 1-.307.383 2.08 2.08 0 0 1-.435.253 1.313 1.313 0 0 1-.997-.07l-2.053-1.045a.8.8 0 0 0-.633-.053.8.8 0 0 0-.481.416.856.856 0 0 0-.06.648.8.8 0 0 0 .415.48l6.975 3.56a7.07 7.07 0 0 0 2.515.759 6.439 6.439 0 0 0 2.603-.293 5.085 5.085 0 0 0 1.812-1.02 5.303 5.303 0 0 0 1.79-3.516 5.257 5.257 0 0 0-.234-2.08l-1.393-4.28Z"/></svg>