<svg aria-hidden="true" style="position: absolute; width: 0; height: 0; overflow: hidden;" version="1.1" xmlns="http://www.w3.org/2000/svg" xmlns:xlink="http://www.w3.org/1999/xlink">
<defs>
<symbol id="backward" viewBox="0 0 16 32">
<path d="M0 16c0 0.596 0.204 1.107 0.642 1.55l12.192 12.982c0.345 0.375 0.784 0.579 1.301 0.579 1.034 0 1.865-0.886 1.865-2.027 0-0.562-0.219-1.056-0.564-1.448l-10.985-11.636 10.985-11.636c0.345-0.392 0.564-0.903 0.564-1.448 0-1.141-0.831-2.027-1.865-2.027-0.517 0-0.956 0.204-1.301 0.579l-12.192 12.965c-0.439 0.46-0.642 0.971-0.642 1.567z"></path>
</symbol>
<symbol id="forward" viewBox="0 0 16 32">
<path d="M16 16c-0.016-0.596-0.219-1.107-0.643-1.567l-12.192-12.965c-0.36-0.375-0.784-0.579-1.301-0.579-1.050 0-1.865 0.886-1.865 2.027 0 0.545 0.204 1.056 0.564 1.448l10.97 11.636-10.97 11.636c-0.36 0.392-0.564 0.886-0.564 1.448 0 1.142 0.815 2.027 1.865 2.027 0.501 0 0.94-0.204 1.301-0.579l12.192-12.982c0.439-0.443 0.642-0.954 0.642-1.55z"></path>
</symbol>
<symbol id="down" viewBox="0 0 56 32">
<path d="M6.58 0l-6.58 6.089 28 25.911 28-25.911-6.58-6.089-21.42 19.779-21.42-19.779z"></path>
</symbol>
<symbol id="up" viewBox="0 0 56 32">
<path d="M6.58 32l-6.58-6.089 28-25.911 28 25.911-6.58 6.089-21.42-19.779-21.42 19.779z"></path>
</symbol>
<symbol id="calendar" viewBox="0 0 32 32">
<path d="M23.407 4.444h5.926c0.393 0 0.77 0.156 1.048 0.434s0.434 0.655 0.434 1.048v23.704c0 0.393-0.156 0.77-0.434 1.048s-0.655 0.434-1.048 0.434h-26.667c-0.393 0-0.77-0.156-1.048-0.434s-0.434-0.655-0.434-1.048v-23.704c0-0.393 0.156-0.77 0.434-1.048s0.655-0.434 1.048-0.434h5.926v-2.963h2.963v2.963h8.889v-2.963h2.963v2.963zM27.852 16.296h-23.704v11.852h23.704v-11.852zM20.444 7.407h-8.889v2.963h-2.963v-2.963h-4.444v5.926h23.704v-5.926h-4.444v2.963h-2.963v-2.963zM7.111 19.259h2.963v2.963h-2.963v-2.963zM14.518 19.259h2.963v2.963h-2.963v-2.963zM21.926 19.259h2.963v2.963h-2.963v-2.963z"></path>
</symbol>
</defs>
</svg>